<?xml version="1.0" encoding="UTF-8" standalone="no"?>
<!-- Created with Inkscape (http://www.inkscape.org/) -->

<svg
   xmlns:dc="http://purl.org/dc/elements/1.1/"
   xmlns:cc="http://creativecommons.org/ns#"
   xmlns:rdf="http://www.w3.org/1999/02/22-rdf-syntax-ns#"
   xmlns:svg="http://www.w3.org/2000/svg"
   xmlns="http://www.w3.org/2000/svg"
   xmlns:sodipodi="http://sodipodi.sourceforge.net/DTD/sodipodi-0.dtd"
   xmlns:inkscape="http://www.inkscape.org/namespaces/inkscape"
   width="746.63977"
   height="546.11365"
   id="svg3078"
   version="1.1"
   inkscape:version="0.92.5 (2060ec1f9f, 2020-04-08)"
   sodipodi:docname="Igbo_Wikimedians_User_Group.svg">
  <title
     id="title12887">Igbo Wikimedians User Group</title>
  <defs
     id="defs3080">
    <style
       id="style10723">.cls-1{fill:#396;}.cls-2{fill:#069;}.cls-3{fill:#900;}</style>
  </defs>
  <sodipodi:namedview
     id="base"
     pagecolor="#ffffff"
     bordercolor="#666666"
     borderopacity="1.0"
     inkscape:pageopacity="0.0"
     inkscape:pageshadow="2"
     inkscape:zoom="2.651746"
     inkscape:cx="370.82378"
     inkscape:cy="250.3276"
     inkscape:document-units="px"
     inkscape:current-layer="layer1"
     showgrid="false"
     inkscape:snap-bbox="false"
     inkscape:bbox-paths="true"
     inkscape:bbox-nodes="true"
     inkscape:snap-bbox-edge-midpoints="true"
     inkscape:snap-bbox-midpoints="true"
     inkscape:object-paths="false"
     inkscape:snap-intersection-paths="false"
     inkscape:object-nodes="false"
     inkscape:snap-smooth-nodes="false"
     inkscape:snap-midpoints="true"
     inkscape:snap-object-midpoints="true"
     inkscape:snap-center="true"
     inkscape:window-width="2560"
     inkscape:window-height="1009"
     inkscape:window-x="-8"
     inkscape:window-y="-8"
     inkscape:window-maximized="1"
     fit-margin-top="0"
     fit-margin-left="0"
     fit-margin-right="0"
     fit-margin-bottom="0"
     inkscape:snap-nodes="true"
     inkscape:snap-global="true" />
  <metadata
     id="metadata3083">
    <rdf:RDF>
      <cc:Work
         rdf:about="">
        <dc:format>image/svg+xml</dc:format>
        <dc:type
           rdf:resource="http://purl.org/dc/dcmitype/StillImage" />
        <dc:title>Igbo Wikimedians User Group</dc:title>
        <cc:license
           rdf:resource="http://creativecommons.org/licenses/by-sa/4.0/" />
      </cc:Work>
      <cc:License
         rdf:about="http://creativecommons.org/licenses/by-sa/4.0/">
        <cc:permits
           rdf:resource="http://creativecommons.org/ns#Reproduction" />
        <cc:permits
           rdf:resource="http://creativecommons.org/ns#Distribution" />
        <cc:requires
           rdf:resource="http://creativecommons.org/ns#Notice" />
        <cc:requires
           rdf:resource="http://creativecommons.org/ns#Attribution" />
        <cc:permits
           rdf:resource="http://creativecommons.org/ns#DerivativeWorks" />
        <cc:requires
           rdf:resource="http://creativecommons.org/ns#ShareAlike" />
      </cc:License>
    </rdf:RDF>
  </metadata>
  <g
     inkscape:label="Layer 1"
     inkscape:groupmode="layer"
     id="layer1"
     transform="translate(2824.9573,-30.995573)">
    <path
       id="path3434"
       d="m 385.25,522.06218 c 35.9,-5.1 63.5,-35.9 63.5,-73.3 0,-22.7 -10.2,-43 -26.3,-56.5 l -37.3,37.3 v 92.5 z"
       class="st1"
       inkscape:connector-curvature="0"
       style="fill:#ffffff;display:none" />
    <path
       id="path3436"
       d="m 364.35,522.06218 v -92.5 l -37.3,-37.3 c -16.1,13.6 -26.3,33.9 -26.3,56.5 0.1,37.3 27.7,68.2 63.6,73.3 z"
       class="st1"
       inkscape:connector-curvature="0"
       style="fill:#ffffff;display:none" />
    <path
       id="path3438"
       d="m 439.15,384.46218 c 17.2,17.2 26.6,40 26.6,64.3 0,24.3 -9.5,47.1 -26.6,64.3 -17.2,17.2 -40,26.6 -64.3,26.6 -24.3,0 -47.1,-9.5 -64.3,-26.6 -17.2,-17.1 -26.6,-40 -26.6,-64.3 0,-24.3 9.5,-47.1 26.6,-64.3 1.5,-1.5 3,-2.9 4.5,-4.2 l -20.8,-20.8 c -1.5,1.4 -3,2.8 -4.5,4.3 -11,11 -19.7,23.9 -25.8,38.2 -6.3,14.8 -9.5,30.6 -9.5,46.8 0,16.2 3.2,32 9.5,46.8 6.1,14.3 14.7,27.2 25.8,38.2 11,11 23.9,19.7 38.2,25.8 14.8,6.3 30.6,9.5 46.8,9.5 16.2,0 32,-3.2 46.8,-9.5 14.3,-6.1 27.2,-14.7 38.2,-25.8 11,-11 19.7,-23.9 25.8,-38.2 6.3,-14.8 9.5,-30.6 9.5,-46.8 0,-16.2 -3.2,-32 -9.5,-46.8 -6.1,-14.3 -14.7,-27.2 -25.8,-38.2 -1.5,-1.5 -3,-2.9 -4.5,-4.3 l -20.8,20.8 c 1.7,1.3 3.2,2.7 4.7,4.2 z"
       class="st1"
       inkscape:connector-curvature="0"
       style="fill:#ffffff;display:none" />
    <circle
       r="37.5"
       cy="59.299999"
       cx="306.89999"
       class="st1"
       id="red_circle_52_"
       sodipodi:cx="306.89999"
       sodipodi:cy="59.299999"
       sodipodi:rx="37.5"
       sodipodi:ry="37.5"
       style="fill:#ffffff;display:none"
       d="m 344.39999,59.299999 c 0,20.710678 -16.78932,37.5 -37.5,37.5 -20.71067,0 -37.5,-16.789322 -37.5,-37.5 0,-20.710678 16.78933,-37.5 37.5,-37.5 20.71068,0 37.5,16.789322 37.5,37.5 z"
       transform="translate(67.95,306.06218)" />
    <path
       id="path3599"
       d="m -520.67481,324.54167 c 35.9,-5.1 63.5,-35.9 63.5,-73.3 0,-22.7 -10.2,-43 -26.3,-56.5 l -37.3,37.3 v 92.5 z"
       class="st1"
       inkscape:connector-curvature="0"
       style="fill:#ffffff;display:none" />
    <path
       id="path3601"
       d="m -541.57481,324.54167 v -92.5 l -37.3,-37.3 c -16.1,13.6 -26.3,33.9 -26.3,56.5 0.1,37.3 27.7,68.2 63.6,73.3 z"
       class="st1"
       inkscape:connector-curvature="0"
       style="fill:#ffffff;display:none" />
    <path
       id="path3603"
       d="m -466.77481,186.94167 c 17.2,17.2 26.6,40 26.6,64.3 0,24.3 -9.5,47.1 -26.6,64.3 -17.2,17.2 -40,26.6 -64.3,26.6 -24.3,0 -47.1,-9.5 -64.3,-26.6 -17.2,-17.1 -26.6,-40 -26.6,-64.3 0,-24.3 9.5,-47.1 26.6,-64.3 1.5,-1.5 3,-2.9 4.5,-4.2 l -20.8,-20.8 c -1.5,1.4 -3,2.8 -4.5,4.3 -11,11 -19.7,23.9 -25.8,38.2 -6.3,14.8 -9.5,30.6 -9.5,46.8 0,16.2 3.2,32 9.5,46.8 6.1,14.3 14.7,27.2 25.8,38.2 11,11 23.9,19.7 38.2,25.8 14.8,6.3 30.6,9.5 46.8,9.5 16.2,0 32,-3.2 46.8,-9.5 14.3,-6.1 27.2,-14.7 38.2,-25.8 11,-11 19.7,-23.9 25.8,-38.2 6.3,-14.8 9.5,-30.6 9.5,-46.8 0,-16.2 -3.2,-32 -9.5,-46.8 -6.1,-14.3 -14.7,-27.2 -25.8,-38.2 -1.5,-1.5 -3,-2.9 -4.5,-4.3 l -20.8,20.8 c 1.7,1.3 3.2,2.7 4.7,4.2 z"
       class="st1"
       inkscape:connector-curvature="0"
       style="fill:#ffffff;display:none" />
    <circle
       r="37.5"
       cy="59.299999"
       cx="306.89999"
       class="st1"
       id="red_circle_52_-2"
       sodipodi:cx="306.89999"
       sodipodi:cy="59.299999"
       sodipodi:rx="37.5"
       sodipodi:ry="37.5"
       style="fill:#ffffff;display:none"
       d="m 344.39999,59.299999 c 0,20.710678 -16.78932,37.5 -37.5,37.5 -20.71067,0 -37.5,-16.789322 -37.5,-37.5 0,-20.710678 16.78933,-37.5 37.5,-37.5 20.71068,0 37.5,16.789322 37.5,37.5 z"
       transform="translate(-837.97481,108.54167)" />
    <path
       id="path3434-4"
       d="m 388.40057,519.14186 c 35.9,-5.1 63.5,-35.9 63.5,-73.3 0,-22.7 -10.2,-43 -26.3,-56.5 l -37.3,37.3 v 92.5 z"
       class="st1"
       inkscape:connector-curvature="0"
       style="fill:#ffffff;display:none" />
    <path
       id="path3436-5"
       d="m 367.50057,519.14186 v -92.5 l -37.3,-37.3 c -16.1,13.6 -26.3,33.9 -26.3,56.5 0.1,37.3 27.7,68.2 63.6,73.3 z"
       class="st1"
       inkscape:connector-curvature="0"
       style="fill:#ffffff;display:none" />
    <path
       id="path3438-5"
       d="m 442.30057,381.54186 c 17.2,17.2 26.6,40 26.6,64.3 0,24.3 -9.5,47.1 -26.6,64.3 -17.2,17.2 -40,26.6 -64.3,26.6 -24.3,0 -47.1,-9.5 -64.3,-26.6 -17.2,-17.1 -26.6,-40 -26.6,-64.3 0,-24.3 9.5,-47.1 26.6,-64.3 1.5,-1.5 3,-2.9 4.5,-4.2 l -20.8,-20.8 c -1.5,1.4 -3,2.8 -4.5,4.3 -11,11 -19.7,23.9 -25.8,38.2 -6.3,14.8 -9.5,30.6 -9.5,46.8 0,16.2 3.2,32 9.5,46.8 6.1,14.3 14.7,27.2 25.8,38.2 11,11 23.9,19.7 38.2,25.8 14.8,6.3 30.6,9.5 46.8,9.5 16.2,0 32,-3.2 46.8,-9.5 14.3,-6.1 27.2,-14.7 38.2,-25.8 11,-11 19.7,-23.9 25.8,-38.2 6.3,-14.8 9.5,-30.6 9.5,-46.8 0,-16.2 -3.2,-32 -9.5,-46.8 -6.1,-14.3 -14.7,-27.2 -25.8,-38.2 -1.5,-1.5 -3,-2.9 -4.5,-4.3 l -20.8,20.8 c 1.7,1.3 3.2,2.7 4.7,4.2 z"
       class="st1"
       inkscape:connector-curvature="0"
       style="fill:#ffffff;display:none" />
    <circle
       r="37.5"
       cy="59.299999"
       cx="306.89999"
       class="st1"
       id="red_circle_52_-4"
       sodipodi:cx="306.89999"
       sodipodi:cy="59.299999"
       sodipodi:rx="37.5"
       sodipodi:ry="37.5"
       style="fill:#ffffff;display:none"
       d="m 344.39999,59.299999 c 0,20.710678 -16.78932,37.5 -37.5,37.5 -20.71067,0 -37.5,-16.789322 -37.5,-37.5 0,-20.710678 16.78933,-37.5 37.5,-37.5 20.71068,0 37.5,16.789322 37.5,37.5 z"
       transform="translate(71.1006,303.14186)" />
    <path
       id="path3599-3"
       d="m -1921.787,306.22508 c 35.9,-5.1 63.5,-35.9 63.5,-73.3 0,-22.7 -10.2,-43 -26.3,-56.5 l -37.3,37.3 v 92.5 z"
       class="st1"
       inkscape:connector-curvature="0"
       style="fill:#ffffff;display:none" />
    <path
       id="path3601-1"
       d="m -1942.687,306.22508 v -92.5 l -37.3,-37.3 c -16.1,13.6 -26.3,33.9 -26.3,56.5 0.1,37.3 27.7,68.2 63.6,73.3 z"
       class="st1"
       inkscape:connector-curvature="0"
       style="fill:#ffffff;display:none" />
    <path
       id="path3603-5"
       d="m -1867.887,168.62508 c 17.2,17.2 26.6,40 26.6,64.3 0,24.3 -9.5,47.1 -26.6,64.3 -17.2,17.2 -40,26.6 -64.3,26.6 -24.3,0 -47.1,-9.5 -64.3,-26.6 -17.2,-17.1 -26.6,-40 -26.6,-64.3 0,-24.3 9.5,-47.1 26.6,-64.3 1.5,-1.5 3,-2.9 4.5,-4.2 l -20.8,-20.8 c -1.5,1.4 -3,2.8 -4.5,4.3 -11,11 -19.7,23.9 -25.8,38.2 -6.3,14.8 -9.5,30.6 -9.5,46.8 0,16.2 3.2,32 9.5,46.8 6.1,14.3 14.7,27.2 25.8,38.2 11,11 23.9,19.7 38.2,25.8 14.8,6.3 30.6,9.5 46.8,9.5 16.2,0 32,-3.2 46.8,-9.5 14.3,-6.1 27.2,-14.7 38.2,-25.8 11,-11 19.7,-23.9 25.8,-38.2 6.3,-14.8 9.5,-30.6 9.5,-46.8 0,-16.2 -3.2,-32 -9.5,-46.8 -6.1,-14.3 -14.7,-27.2 -25.8,-38.2 -1.5,-1.5 -3,-2.9 -4.5,-4.3 l -20.8,20.8 c 1.7,1.3 3.2,2.7 4.7,4.2 z"
       class="st1"
       inkscape:connector-curvature="0"
       style="fill:#ffffff;display:none" />
    <circle
       r="37.5"
       cy="59.299999"
       cx="306.89999"
       class="st1"
       id="red_circle_52_-8"
       sodipodi:cx="306.89999"
       sodipodi:cy="59.299999"
       sodipodi:rx="37.5"
       sodipodi:ry="37.5"
       style="fill:#ffffff;display:none"
       d="m 344.39999,59.299999 c 0,20.710678 -16.78932,37.5 -37.5,37.5 -20.71067,0 -37.5,-16.789322 -37.5,-37.5 0,-20.710678 16.78933,-37.5 37.5,-37.5 20.71068,0 37.5,16.789322 37.5,37.5 z"
       transform="translate(-2239.087,90.225077)" />
    <path
       id="path3434-5"
       d="m -1012.7116,500.82527 c 35.9,-5.1 63.5,-35.9 63.5,-73.3 0,-22.7 -10.2,-43 -26.3,-56.5 l -37.3,37.3 v 92.5 z"
       class="st1"
       inkscape:connector-curvature="0"
       style="fill:#ffffff;display:none" />
    <path
       id="path3436-4"
       d="m -1033.6116,500.82527 v -92.5 l -37.3,-37.3 c -16.1,13.6 -26.3,33.9 -26.3,56.5 0.1,37.3 27.7,68.2 63.6,73.3 z"
       class="st1"
       inkscape:connector-curvature="0"
       style="fill:#ffffff;display:none" />
    <path
       id="path3438-2"
       d="m -958.8116,363.22527 c 17.2,17.2 26.6,40 26.6,64.3 0,24.3 -9.5,47.1 -26.6,64.3 -17.2,17.2 -40,26.6 -64.3,26.6 -24.3,0 -47.1,-9.5 -64.3,-26.6 -17.2,-17.1 -26.6,-40 -26.6,-64.3 0,-24.3 9.5,-47.1 26.6,-64.3 1.5,-1.5 3,-2.9 4.5,-4.2 l -20.8,-20.8 c -1.5,1.4 -3,2.8 -4.5,4.3 -11,11 -19.7,23.9 -25.8,38.2 -6.3,14.8 -9.5,30.6 -9.5,46.8 0,16.2 3.2,32 9.5,46.8 6.1,14.3 14.7,27.2 25.8,38.2 11,11 23.9,19.7 38.2,25.8 14.8,6.3 30.6,9.5 46.8,9.5 16.2,0 32,-3.2 46.8,-9.5 14.3,-6.1 27.2,-14.7 38.2,-25.8 11,-11 19.7,-23.9 25.8,-38.2 6.3,-14.8 9.5,-30.6 9.5,-46.8 0,-16.2 -3.2,-32 -9.5,-46.8 -6.1,-14.3 -14.7,-27.2 -25.8,-38.2 -1.5,-1.5 -3,-2.9 -4.5,-4.3 l -20.8,20.8 c 1.7,1.3 3.2,2.7 4.7,4.2 z"
       class="st1"
       inkscape:connector-curvature="0"
       style="fill:#ffffff;display:none" />
    <circle
       r="37.5"
       cy="59.299999"
       cx="306.89999"
       class="st1"
       id="red_circle_52_-4-6"
       sodipodi:cx="306.89999"
       sodipodi:cy="59.299999"
       sodipodi:rx="37.5"
       sodipodi:ry="37.5"
       style="fill:#ffffff;display:none"
       d="m 344.39999,59.299999 c 0,20.710678 -16.78932,37.5 -37.5,37.5 -20.71067,0 -37.5,-16.789322 -37.5,-37.5 0,-20.710678 16.78933,-37.5 37.5,-37.5 20.71068,0 37.5,16.789322 37.5,37.5 z"
       transform="translate(-1330.0116,284.82527)" />
    <path
       id="path3599-4"
       d="m -2602.2534,53.58173 c 35.9,-5.1 63.5,-35.9 63.5,-73.3 0,-22.7 -10.2,-43 -26.3,-56.5 l -37.3,37.3 v 92.5 z"
       class="st1"
       inkscape:connector-curvature="0"
       style="fill:#ffffff;display:none" />
    <path
       id="path3601-0"
       d="m -2623.1534,53.58173 v -92.5 l -37.3,-37.3 c -16.1,13.6 -26.3,33.9 -26.3,56.5 0.1,37.3 27.7,68.2 63.6,73.3 z"
       class="st1"
       inkscape:connector-curvature="0"
       style="fill:#ffffff;display:none" />
    <path
       id="path3603-9"
       d="m -2548.3534,-84.01827 c 17.2,17.2 26.6,40 26.6,64.3 0,24.3 -9.5,47.1 -26.6,64.3 -17.2,17.2 -40,26.6 -64.3,26.6 -24.3,0 -47.1,-9.5 -64.3,-26.6 -17.2,-17.1 -26.6,-40 -26.6,-64.3 0,-24.3 9.5,-47.1 26.6,-64.3 1.5,-1.5 3,-2.9 4.5,-4.2 l -20.8,-20.8 c -1.5,1.4 -3,2.8 -4.5,4.3 -11,11 -19.7,23.9 -25.8,38.2 -6.3,14.8 -9.5,30.6 -9.5,46.8 0,16.2 3.2,32 9.5,46.8 6.1,14.3 14.7,27.2 25.8,38.2 11,11 23.9,19.7 38.2,25.8 14.8,6.3 30.6,9.5 46.8,9.5 16.2,0 32,-3.2 46.8,-9.5 14.3,-6.1 27.2,-14.7 38.2,-25.8 11,-11 19.7,-23.9 25.8,-38.2 6.3,-14.8 9.5,-30.6 9.5,-46.8 0,-16.2 -3.2,-32 -9.5,-46.8 -6.1,-14.3 -14.7,-27.2 -25.8,-38.2 -1.5,-1.5 -3,-2.9 -4.5,-4.3 l -20.8,20.8 c 1.7,1.3 3.2,2.7 4.7,4.2 z"
       class="st1"
       inkscape:connector-curvature="0"
       style="fill:#ffffff;display:none" />
    <circle
       r="37.5"
       cy="59.299999"
       cx="306.89999"
       class="st1"
       id="red_circle_52_-48"
       sodipodi:cx="306.89999"
       sodipodi:cy="59.299999"
       sodipodi:rx="37.5"
       sodipodi:ry="37.5"
       style="fill:#ffffff;display:none"
       d="m 344.39999,59.299999 c 0,20.710678 -16.78932,37.5 -37.5,37.5 -20.71067,0 -37.5,-16.789322 -37.5,-37.5 0,-20.710678 16.78933,-37.5 37.5,-37.5 20.71068,0 37.5,16.789322 37.5,37.5 z"
       transform="translate(-2919.5534,-162.41827)" />
    <g
       id="g3527"
       transform="matrix(0.99999565,0,0,0.99999565,-0.01164983,-5.997624)">
      <path
         inkscape:connector-curvature="0"
         d="m -2675.3699,535.10646 0,-15.94099 -4.5879,0 0,15.94099 c 0.035,3.59078 1.0927,6.39179 3.1737,8.40303 2.0809,2.01126 4.9758,3.03349 8.6849,3.0667 3.7074,-0.0332 6.5959,-1.05544 8.6655,-3.0667 2.0695,-2.01124 3.1209,-4.81225 3.1542,-8.40303 l 0,-15.94099 -4.5879,0 0,15.94099 c -0.023,2.3304 -0.6675,4.13348 -1.9343,5.40924 -1.2669,1.27577 -3.0198,1.92216 -5.2586,1.93916 -2.2608,-0.0194 -4.0379,-0.67068 -5.3315,-1.95374 -1.2936,-1.28305 -1.9529,-3.08127 -1.9781,-5.39466 z"
         style="font-size:38.88095093px;font-style:normal;font-variant:normal;font-weight:normal;font-stretch:normal;text-align:center;line-height:0%;letter-spacing:20px;word-spacing:0px;writing-mode:lr-tb;text-anchor:middle;fill:#666666;fill-opacity:1;stroke:none;font-family:Montserrat;-inkscape-font-specification:Montserrat"
         id="path7260-8" />
      <path
         inkscape:connector-curvature="0"
         d="m -2613.1581,525.81403 1.9052,-4.04357 c -1.2815,-0.84805 -2.7427,-1.5236 -4.3838,-2.02664 -1.6411,-0.50299 -3.3551,-0.76057 -5.1419,-0.77275 -2.9987,0.0243 -5.3898,0.70474 -7.1735,2.04122 -1.7836,1.33654 -2.6973,3.18336 -2.741,5.54047 0.077,2.3617 0.8419,4.08276 2.2963,5.1632 1.4544,1.08046 3.1384,1.87205 5.0521,2.37475 1.9136,0.50272 3.5976,1.06831 5.052,1.69676 1.4543,0.62848 2.2198,1.67157 2.2964,3.12927 -0.013,1.05626 -0.4634,1.86951 -1.3511,2.43975 -0.8878,0.57025 -2.1352,0.85861 -3.7423,0.86509 -1.4847,-0.005 -3.0351,-0.34506 -4.6511,-1.02061 -1.6159,-0.67554 -3.1371,-1.65727 -4.5635,-2.9452 l -1.9829,3.96581 c 1.4207,1.3025 3.0893,2.34255 5.0058,3.12016 1.9165,0.7776 3.9545,1.17613 6.114,1.19557 3.0472,-0.0235 5.5064,-0.72496 7.3775,-2.10441 1.8711,-1.37944 2.8334,-3.29592 2.8869,-5.74944 -0.067,-2.39185 -0.8249,-4.14491 -2.2739,-5.25919 -1.449,-1.11426 -3.1292,-1.9354 -5.0405,-2.46344 -1.9113,-0.52801 -3.5939,-1.10858 -5.0478,-1.74172 -1.4538,-0.63311 -2.2191,-1.66445 -2.2957,-3.09404 0.017,-0.91772 0.4204,-1.61918 1.2101,-2.1044 0.7898,-0.48517 1.8639,-0.7298 3.2223,-0.73387 1.0489,-0.006 2.2655,0.19119 3.6499,0.59293 1.3842,0.40178 2.8244,1.04655 4.3205,1.9343 z"
         style="font-size:38.88095093px;font-style:normal;font-variant:normal;font-weight:normal;font-stretch:normal;text-align:center;line-height:0%;letter-spacing:20px;word-spacing:0px;writing-mode:lr-tb;text-anchor:middle;fill:#666666;fill-opacity:1;stroke:none;font-family:Montserrat;-inkscape-font-specification:Montserrat"
         id="path7262-2" />
      <path
         inkscape:connector-curvature="0"
         d="m -2585.5724,519.16547 0,27.21632 19.9068,0 0,-4.12133 -15.3189,0 0,-7.50393 13.2971,0 0,-4.08244 -13.2971,0 0,-7.38729 14.8523,0 0,-4.12133 z"
         style="font-size:38.88095093px;font-style:normal;font-variant:normal;font-weight:normal;font-stretch:normal;text-align:center;line-height:0%;letter-spacing:20px;word-spacing:0px;writing-mode:lr-tb;text-anchor:middle;fill:#666666;fill-opacity:1;stroke:none;font-family:Montserrat;-inkscape-font-specification:Montserrat"
         id="path7264-4" />
      <path
         inkscape:connector-curvature="0"
         d="m -2517.5839,546.38179 -6.1042,-9.09803 c 1.8168,-0.70794 3.2084,-1.80955 4.1748,-3.30484 0.9663,-1.49526 1.4539,-3.3356 1.4628,-5.52102 -0.022,-2.97271 -0.9793,-5.26018 -2.8723,-6.8624 -1.893,-1.60217 -4.5903,-2.41218 -8.092,-2.43003 l -11.042,0 0,27.21632 4.5879,0 0,-8.20378 6.4542,0 c 0.4341,0.006 0.8488,-0.006 1.2441,-0.0389 l 4.9767,8.24266 z m -17.885,-12.3251 0,-10.76989 6.4541,0 c 2.1125,-0.003 3.739,0.43095 4.8796,1.30249 1.1404,0.8716 1.7171,2.20001 1.7301,3.98525 -0.013,1.84441 -0.5897,3.2198 -1.7301,4.12619 -1.1406,0.90641 -2.7671,1.3584 -4.8796,1.35596 z"
         style="font-size:38.88095093px;font-style:normal;font-variant:normal;font-weight:normal;font-stretch:normal;text-align:center;line-height:0%;letter-spacing:20px;word-spacing:0px;writing-mode:lr-tb;text-anchor:middle;fill:#666666;fill-opacity:1;stroke:none;font-family:Montserrat;-inkscape-font-specification:Montserrat"
         id="path7266-5" />
      <path
         inkscape:connector-curvature="0"
         d="m -2441.6408,540.5886 c -0.985,0.58807 -2.0186,1.04492 -3.1007,1.37054 -1.0822,0.32562 -2.1353,0.49087 -3.1591,0.49572 -2.8472,-0.0632 -5.2011,-0.9963 -7.0617,-2.79939 -1.8606,-1.80307 -2.8245,-4.09702 -2.8917,-6.88184 0.066,-2.76617 1.023,-5.04877 2.8723,-6.84782 1.8492,-1.79901 4.1966,-2.73052 7.0422,-2.79453 1.4378,0.008 2.8391,0.28353 4.204,0.82621 1.3648,0.54273 2.5814,1.30413 3.6499,2.28422 l 2.605,-3.38259 c -1.3665,-1.17935 -2.959,-2.106 -4.7775,-2.77996 -1.8185,-0.6739 -3.7123,-1.01734 -5.6814,-1.03033 -4.2137,0.0859 -7.674,1.40134 -10.3811,3.94637 -2.707,2.54507 -4.1067,5.80454 -4.199,9.77843 0.093,3.97716 1.4717,7.24959 4.1359,9.81731 2.6641,2.56773 6.0548,3.89615 10.1721,3.98525 1.901,-0.0162 3.7851,-0.34344 5.6522,-0.98173 1.8671,-0.63829 3.5081,-1.49042 4.9232,-2.55639 l 0,-10.03116 -4.0046,0 z"
         style="font-size:38.88095093px;font-style:normal;font-variant:normal;font-weight:normal;font-stretch:normal;text-align:center;line-height:0%;letter-spacing:20px;word-spacing:0px;writing-mode:lr-tb;text-anchor:middle;fill:#666666;fill-opacity:1;stroke:none;font-family:Montserrat;-inkscape-font-specification:Montserrat"
         id="path7268-5" />
      <path
         inkscape:connector-curvature="0"
         d="m -2388.7069,546.38179 -6.1042,-9.09803 c 1.8168,-0.70794 3.2084,-1.80955 4.1748,-3.30484 0.9663,-1.49526 1.4539,-3.3356 1.4628,-5.52102 -0.022,-2.97271 -0.9793,-5.26018 -2.8722,-6.8624 -1.8931,-1.60217 -4.5904,-2.41218 -8.092,-2.43003 l -11.0421,0 0,27.21632 4.5879,0 0,-8.20378 6.4542,0 c 0.4341,0.006 0.8488,-0.006 1.2441,-0.0389 l 4.9767,8.24266 z m -17.885,-12.3251 0,-10.76989 6.4542,0 c 2.1125,-0.003 3.7389,0.43095 4.8795,1.30249 1.1404,0.8716 1.7172,2.20001 1.7301,3.98525 -0.013,1.84441 -0.5897,3.2198 -1.7301,4.12619 -1.1405,0.90641 -2.7671,1.3584 -4.8795,1.35596 z"
         style="font-size:38.88095093px;font-style:normal;font-variant:normal;font-weight:normal;font-stretch:normal;text-align:center;line-height:0%;letter-spacing:20px;word-spacing:0px;writing-mode:lr-tb;text-anchor:middle;fill:#666666;fill-opacity:1;stroke:none;font-family:Montserrat;-inkscape-font-specification:Montserrat"
         id="path7270-1" />
      <path
         inkscape:connector-curvature="0"
         d="m -2350.9127,519.04883 c -4.1561,0.0835 -7.576,1.39405 -10.2596,3.93179 -2.6835,2.53778 -4.0719,5.80211 -4.165,9.79301 0.093,3.97716 1.4815,7.24959 4.165,9.81731 2.6836,2.56773 6.1035,3.89615 10.2596,3.98525 4.1562,-0.0891 7.576,-1.41752 10.2596,-3.98525 2.6835,-2.56772 4.0719,-5.84015 4.1651,-9.81731 -0.093,-3.97389 -1.4816,-7.23336 -4.1651,-9.77843 -2.6836,-2.54503 -6.1034,-3.86048 -10.2596,-3.94637 z m 0.039,4.12133 c 2.7338,0.0624 5.0131,0.98742 6.8381,2.77509 1.8249,1.78771 2.7726,4.06383 2.8432,6.82838 -0.071,2.76781 -1.0183,5.0569 -2.8432,6.86726 -1.825,1.81037 -4.1043,2.74836 -6.8381,2.81397 -2.7386,-0.0656 -5.0374,-1.00359 -6.8964,-2.81397 -1.859,-1.81036 -2.8261,-4.09945 -2.9015,-6.86726 0.073,-2.76455 1.0352,-5.04067 2.8869,-6.82838 1.8517,-1.78767 4.1554,-2.7127 6.911,-2.77509 z"
         style="font-size:38.88095093px;font-style:normal;font-variant:normal;font-weight:normal;font-stretch:normal;text-align:center;line-height:0%;letter-spacing:20px;word-spacing:0px;writing-mode:lr-tb;text-anchor:middle;fill:#666666;fill-opacity:1;stroke:none;font-family:Montserrat;-inkscape-font-specification:Montserrat"
         id="path7272-7" />
      <path
         inkscape:connector-curvature="0"
         d="m -2307.5238,535.10646 0,-15.94099 -4.5879,0 0,15.94099 c 0.035,3.59078 1.0927,6.39179 3.1736,8.40303 2.0809,2.01126 4.9759,3.03349 8.6849,3.0667 3.7074,-0.0332 6.5959,-1.05544 8.6655,-3.0667 2.0696,-2.01124 3.121,-4.81225 3.1542,-8.40303 l 0,-15.94099 -4.5879,0 0,15.94099 c -0.023,2.3304 -0.6675,4.13348 -1.9343,5.40924 -1.2669,1.27577 -3.0197,1.92216 -5.2586,1.93916 -2.2608,-0.0194 -4.0379,-0.67068 -5.3315,-1.95374 -1.2936,-1.28305 -1.9529,-3.08127 -1.978,-5.39466 z"
         style="font-size:38.88095093px;font-style:normal;font-variant:normal;font-weight:normal;font-stretch:normal;text-align:center;line-height:0%;letter-spacing:20px;word-spacing:0px;writing-mode:lr-tb;text-anchor:middle;fill:#666666;fill-opacity:1;stroke:none;font-family:Montserrat;-inkscape-font-specification:Montserrat"
         id="path7274-1" />
      <path
         inkscape:connector-curvature="0"
         d="m -2251.0275,519.16547 -10.8476,0 0,27.21632 4.5879,0 0,-8.20378 6.2597,0 c 3.4425,-0.021 6.0929,-0.87318 7.9511,-2.55639 1.8581,-1.68318 2.7977,-4.07109 2.8188,-7.16372 -0.021,-2.97271 -0.9607,-5.26018 -2.8188,-6.8624 -1.8582,-1.60217 -4.5086,-2.41218 -7.9511,-2.43003 z m -0.1944,14.89122 -6.0653,0 0,-10.76989 6.0653,0 c 2.1109,-0.003 3.7309,0.43095 4.8601,1.30249 1.1291,0.8716 1.6994,2.20001 1.7107,3.98525 -0.011,1.84441 -0.5816,3.2198 -1.7107,4.12619 -1.1292,0.90641 -2.7492,1.3584 -4.8601,1.35596 z"
         style="font-size:38.88095093px;font-style:normal;font-variant:normal;font-weight:normal;font-stretch:normal;text-align:center;line-height:0%;letter-spacing:20px;word-spacing:0px;writing-mode:lr-tb;text-anchor:middle;fill:#666666;fill-opacity:1;stroke:none;font-family:Montserrat;-inkscape-font-specification:Montserrat"
         id="path7276-1" />
    </g>
    <g
       id="g897">
      <g
         id="g3588">
        <path
           id="path3608"
           d="m -2449.8476,251.85973 c 35.9,-5.1 63.5,-35.9 63.5,-73.3 0,-22.7 -10.2,-43 -26.3,-56.5 l -37.3,37.3 v 92.5 z"
           inkscape:connector-curvature="0"
           style="fill:#339966;fill-opacity:1" />
        <path
           id="path3610"
           d="m -2470.7476,251.85973 v -92.5 l -37.3,-37.3 c -16.1,13.6 -26.3,33.9 -26.3,56.5 0.1,37.3 27.7,68.2 63.6,73.3 z"
           inkscape:connector-curvature="0"
           style="fill:#339966;fill-opacity:1" />
        <path
           id="path3612"
           d="m -2395.9476,114.25973 c 17.2,17.2 26.6,40 26.6,64.3 0,24.3 -9.5,47.1 -26.6,64.3 -17.2,17.2 -40,26.6 -64.3,26.6 -24.3,0 -47.1,-9.5 -64.3,-26.6 -17.2,-17.1 -26.6,-40 -26.6,-64.3 0,-24.3 9.5,-47.1 26.6,-64.3 1.5,-1.5 3,-2.9 4.5,-4.2 l -20.8,-20.8 c -1.5,1.4 -3,2.8 -4.5,4.3 -11,11 -19.7,23.9 -25.8,38.2 -6.3,14.8 -9.5,30.6 -9.5,46.8 0,16.2 3.2,32 9.5,46.8 6.1,14.3 14.7,27.2 25.8,38.2 11,11 23.9,19.7 38.2,25.8 14.8,6.3 30.6,9.5 46.8,9.5 16.2,0 32,-3.2 46.8,-9.5 14.3,-6.1 27.2,-14.7 38.2,-25.8 11,-11 19.7,-23.9 25.8,-38.2 6.3,-14.8 9.5,-30.6 9.5,-46.8 0,-16.2 -3.2,-32 -9.5,-46.8 -6.1,-14.3 -14.7,-27.2 -25.8,-38.2 -1.5,-1.5 -3,-2.9 -4.5,-4.3 l -20.8,20.8 c 1.7,1.3 3.2,2.7 4.7,4.2 z"
           inkscape:connector-curvature="0"
           style="fill:#006699;fill-opacity:1" />
        <circle
           r="37.5"
           cy="59.299999"
           cx="306.89999"
           id="red_circle_46_"
           sodipodi:cx="306.89999"
           sodipodi:cy="59.299999"
           sodipodi:rx="37.5"
           sodipodi:ry="37.5"
           d="m 344.39999,59.299999 c 0,20.710678 -16.78932,37.5 -37.5,37.5 -20.71067,0 -37.5,-16.789322 -37.5,-37.5 0,-20.710678 16.78933,-37.5 37.5,-37.5 20.71068,0 37.5,16.789322 37.5,37.5 z"
           transform="translate(-2767.1476,35.85973)"
           style="fill:#990000;fill-opacity:1" />
      </g>
    </g>
    <g
       id="g3542"
       transform="translate(0,84)">
      <path
         d="m -2106.39,378.42102 0,-0.19303 c -1e-4,-2.93833 -0.4632,-5.46186 -1.3893,-7.57058 -0.9262,-2.10867 -2.2998,-3.94538 -4.1209,-5.51013 -1.8211,-1.56468 -4.0575,-2.90613 -6.7092,-4.02438 -2.6518,-1.11816 -5.6701,-2.12474 -9.0549,-3.01976 -2.876,-0.76622 -5.2562,-1.43696 -7.1406,-2.01217 -1.8845,-0.57515 -3.3698,-1.18204 -4.4558,-1.82064 -1.0861,-0.63851 -1.8367,-1.357 -2.252,-2.15551 -0.4154,-0.79839 -0.623,-1.74063 -0.623,-2.82671 l 0,-0.19304 c 0,-1.66117 0.7185,-3.05088 2.1555,-4.16916 1.437,-1.11815 3.5935,-1.67726 6.4694,-1.67732 2.874,6e-5 5.7485,0.59134 8.6235,1.77384 2.8749,1.1826 5.8148,2.79557 8.8194,4.83891 l 7.6657,-11.11678 c -3.4493,-2.7472 -7.2348,-4.85541 -11.3566,-6.32465 -4.1219,-1.46911 -8.6425,-2.2037 -13.5619,-2.20376 -3.4492,7e-5 -6.6113,0.47923 -9.4862,1.43749 -2.875,0.95839 -5.3508,2.33202 -7.4273,4.1209 -2.0765,1.78901 -3.69,3.9133 -4.8404,6.37291 -1.1503,2.45973 -1.7255,5.22308 -1.7255,8.29006 l 0,0.19011 c 0,3.3225 0.5269,6.10194 1.5808,8.33831 1.0538,2.23646 2.5396,4.10534 4.4572,5.60664 1.9176,1.50139 4.2501,2.76339 6.9974,3.78602 2.7472,1.02271 5.8132,1.94935 9.1981,2.77994 2.8116,0.70195 5.0958,1.3722 6.8526,2.01072 1.7567,0.63859 3.1304,1.27764 4.1209,1.91715 0.9905,0.63955 1.6617,1.32637 2.0137,2.06044 0.3518,0.73412 0.5278,1.58082 0.5279,2.5401 l 0,0.19304 c -10e-5,1.97906 -0.8468,3.52769 -2.5401,4.64587 -1.6935,1.11823 -4.0737,1.67733 -7.1407,1.67732 -3.8333,10e-6 -7.3634,-0.73458 -10.5903,-2.20376 -3.227,-1.46916 -6.373,-3.44967 -9.438,-5.94153 l -8.7215,10.44704 c 4.0244,3.64027 8.4963,6.33928 13.4156,8.09702 4.9193,1.75775 9.9352,2.63662 15.0476,2.63662 3.6422,0 6.9646,-0.46357 9.9674,-1.3907 3.0026,-0.92712 5.59,-2.26908 7.7621,-4.02584 2.172,-1.75677 3.8649,-3.92885 5.0787,-6.51622 1.2137,-2.58739 1.8206,-5.5423 1.8207,-8.86477 z"
         id="path12425"
         inkscape:connector-curvature="0"
         style="font-size:93.19429016px;font-style:normal;font-variant:normal;font-weight:bold;font-stretch:normal;text-align:center;line-height:100%;letter-spacing:10.65077591px;word-spacing:0px;writing-mode:lr-tb;text-anchor:middle;fill:#000000;fill-opacity:1;stroke:none;font-family:Gotham;-inkscape-font-specification:Gotham Bold" />
      <path
         id="path3559"
         d="m -2776.2579,370.17309 11.9,-38.6 h 15.6 l 11.8,38.6 13.3,-38.6 h 16.2 l -23.4,67.1 h -11.1 l -14.7,-46.7 -14.6,46.7 h -11.1 l -23.4,-67.1 h 16.2 l 13.3,38.6 z"
         inkscape:connector-curvature="0" />
      <path
         id="path3561"
         d="m -2699.3579,331.57309 h 15 v 67.1 h -15 v -67.1 z"
         inkscape:connector-curvature="0" />
      <path
         id="path3563"
         d="m -2667.8579,331.57309 h 15 v 27.6 l 25.3,-27.6 h 18.5 l -26.7,29.7 c 2.3,3.2 6.6,9.2 12.8,17.9 6.2,8.7 10.8,15.2 13.9,19.5 h -17.5 l -19.6,-26.5 -6.7,7.5 v 19 h -15 v -67.1 z"
         inkscape:connector-curvature="0" />
      <path
         id="path3565"
         d="m -2599.7579,331.57309 h 15 v 67.1 h -15 v -67.1 z"
         inkscape:connector-curvature="0" />
      <path
         id="path3567"
         d="m -2508.1579,356.47309 -18.1,36.7 h -9 l -18,-36.7 v 42.2 h -15 v -67.1 h 20.3 l 17.3,36.9 17.4,-36.9 h 20.2 v 67.1 h -15 v -42.2 z"
         inkscape:connector-curvature="0" />
      <path
         id="path3569"
         d="m -2428.2579,331.57309 v 13.3 h -33.4 v 13.8 h 30 v 12.8 h -30 v 13.9 h 34.4 v 13.2 h -49.4 v -67.1 h 48.4 z"
         inkscape:connector-curvature="0" />
      <path
         id="path3571"
         d="m -2362.6579,340.37309 c 6.4,5.9 9.6,14 9.6,24.4 0,10.4 -3.1,18.7 -9.4,24.8 -6.2,6.1 -15.8,9.1 -28.6,9.1 h -22.9 v -67.1 h 23.7 c 12.1,0 21.2,3 27.6,8.8 z m -11,39.9 c 3.7,-3.5 5.5,-8.5 5.5,-15.1 0,-6.6 -1.8,-11.7 -5.5,-15.2 -3.7,-3.6 -9.3,-5.3 -16.9,-5.3 h -8.4 v 40.8 h 9.5 c 6.9,0 12.2,-1.7 15.8,-5.2 z"
         inkscape:connector-curvature="0" />
      <path
         id="path3573"
         d="m -2340.0579,331.57309 h 15 v 67.1 h -15 v -67.1 z"
         inkscape:connector-curvature="0" />
      <path
         id="path3575"
         d="m -2260.7579,398.67309 -6.2,-14.5 h -28.1 l -6.2,14.5 h -15.9 l 29,-67.1 h 14.5 l 29,67.1 h -16.1 z m -20.3,-47.1 -8.4,19.5 h 16.8 l -8.4,-19.5 z"
         inkscape:connector-curvature="0" />
      <g
         id="text2985"
         style="font-size:97.01932526px;font-style:normal;font-variant:normal;font-weight:normal;font-stretch:normal;text-align:center;line-height:125%;letter-spacing:0px;word-spacing:0px;writing-mode:lr-tb;text-anchor:middle;fill:#000100;fill-opacity:1;stroke:#000000;stroke-width:3;stroke-miterlimit:4;stroke-opacity:1;font-family:Swiss 721;-inkscape-font-specification:Montserrat"
         transform="matrix(1.0508578,0,0,0.95160354,-2838.0819,-156.30409)">
        <path
           id="path4585"
           style="line-height:0%;letter-spacing:-2.98858595px;fill:#000100;stroke:#000000;font-family:Montserrat;-inkscape-font-specification:Montserrat"
           d="m 574.12528,513.71302 0,67.91265 11.44813,0 0,-48.70307 36.18774,48.70307 11.2541,0 0,-67.91265 -11.2541,0 0,48.80009 -36.38178,-48.80009 z"
           inkscape:connector-curvature="0" />
      </g>
    </g>
    <g
       aria-label="IGBO"
       style="font-style:normal;font-variant:normal;font-weight:bold;font-stretch:normal;font-size:68.24447632px;line-height:1.25;font-family:Gotham;-inkscape-font-specification:'Gotham Bold';font-variant-ligatures:normal;font-variant-caps:normal;font-variant-numeric:normal;font-feature-settings:normal;text-align:start;writing-mode:lr-tb;text-anchor:start;opacity:1;fill:#484848;fill-opacity:1;stroke:none;stroke-width:0.36559543;stroke-linejoin:bevel;stroke-miterlimit:4;stroke-dasharray:none;stroke-opacity:1"
       id="text12783"
       transform="translate(619.10395,111.32933)">
      <path
         d="m -3164.1043,270.61597 v -47.77114 h -10.5097 v 47.77114 z"
         style="letter-spacing:5.48393106px;stroke-width:0.36559543"
         id="path12785"
         inkscape:connector-curvature="0" />
      <path
         d="m -3103.2784,263.85976 v -20.74632 h -20.7463 v 9.07652 h 10.5779 v 6.82445 q -4.0264,2.86626 -9.8955,2.86626 -3.2075,0 -5.869,-1.09191 -2.5933,-1.16015 -4.5724,-3.20749 -1.9108,-2.04733 -3.0027,-4.77711 -1.0237,-2.79803 -1.0237,-6.07376 v -0.13649 q 0,-3.071 1.0237,-5.73253 1.0919,-2.72978 2.9345,-4.70887 1.9108,-2.04734 4.3676,-3.20749 2.5251,-1.2284 5.3913,-1.2284 2.0474,0 3.7535,0.34122 1.7061,0.34122 3.1392,0.95542 1.5014,0.6142 2.8663,1.50138 1.3649,0.88718 2.7298,2.04733 l 6.6197,-7.9846 q -1.8426,-1.56962 -3.8217,-2.79802 -1.9791,-1.2284 -4.2311,-2.04734 -2.2521,-0.81893 -4.9136,-1.2284 -2.5933,-0.47771 -5.8008,-0.47771 -5.4596,0 -10.032,1.97909 -4.5723,1.91084 -7.9163,5.32307 -3.344,3.34398 -5.2549,7.84811 -1.8426,4.43589 -1.8426,9.55423 v 0.13649 q 0,5.32307 1.8426,9.8272 1.8426,4.50414 5.1184,7.77987 3.344,3.27574 7.9163,5.11834 4.6407,1.8426 10.2367,1.8426 6.5515,0 11.6016,-2.18382 5.1183,-2.25207 8.8035,-5.39132 z"
         style="letter-spacing:5.48393106px;stroke-width:0.36559543"
         id="path12787"
         inkscape:connector-curvature="0" />
      <path
         d="m -3047.1432,257.51303 v -0.13649 q 0,-4.77711 -2.3886,-7.43865 -2.3885,-2.72978 -6.5514,-4.2994 1.2966,-0.68245 2.3885,-1.63787 1.1602,-0.95542 1.9791,-2.18382 0.8872,-1.29665 1.3649,-2.86627 0.546,-1.56962 0.546,-3.61696 v -0.13649 q 0,-5.66429 -4.2312,-9.00827 -4.1629,-3.34398 -11.5333,-3.34398 h -22.1795 v 47.77114 h 22.7255 q 4.0264,0 7.3021,-0.81894 3.344,-0.81893 5.6643,-2.4568 2.3886,-1.63787 3.617,-4.09467 1.2966,-2.4568 1.2966,-5.73253 z m -13.1029,-20.4051 q 0,2.66153 -2.0474,3.88993 -2.0473,1.16016 -5.5278,1.16016 h -9.6907 v -10.10018 h 10.3732 q 3.344,0 5.1183,1.29664 1.7744,1.2284 1.7744,3.61696 z m 2.6615,19.10845 q 0,2.66154 -1.9791,3.95818 -1.9791,1.2284 -5.4595,1.2284 h -12.4888 v -10.50965 h 12.1475 q 4.0947,0 5.9373,1.43314 1.8426,1.36489 1.8426,3.75344 z"
         style="letter-spacing:5.48393106px;stroke-width:0.36559543"
         id="path12789"
         inkscape:connector-curvature="0" />
      <path
         d="m -2984.2891,246.7304 v -0.13649 q 0,-5.11833 -1.9109,-9.55423 -1.8426,-4.50413 -5.2548,-7.77987 -3.344,-3.34398 -7.9846,-5.25482 -4.6406,-1.97909 -10.1684,-1.97909 -5.5278,0 -10.2367,1.97909 -4.6406,1.91084 -8.0528,5.32307 -3.344,3.34398 -5.2549,7.84811 -1.9108,4.43589 -1.9108,9.55423 v 0.13649 q 0,5.11833 1.8426,9.62247 1.9108,4.43589 5.2548,7.77987 3.4122,3.27574 8.0529,5.25483 4.6406,1.91084 10.1684,1.91084 5.5278,0 10.1684,-1.91084 4.7089,-1.97909 8.0529,-5.32307 3.4122,-3.41223 5.323,-7.84812 1.9109,-4.50413 1.9109,-9.62247 z m -10.9874,0.13649 q 0,3.071 -1.0919,5.80078 -1.0237,2.66153 -2.9345,4.70887 -1.8426,2.04733 -4.5041,3.20749 -2.6616,1.16015 -5.8008,1.16015 -3.2075,0 -5.869,-1.16015 -2.5933,-1.2284 -4.5724,-3.27574 -1.9109,-2.04733 -3.0028,-4.77711 -1.0236,-2.72978 -1.0236,-5.80078 v -0.13649 q 0,-3.071 1.0236,-5.73253 1.0919,-2.72978 2.9345,-4.77712 1.9109,-2.04733 4.5042,-3.20749 2.6615,-1.16015 5.869,-1.16015 3.1392,0 5.8008,1.2284 2.6615,1.16015 4.5724,3.20749 1.979,2.04733 3.0027,4.77711 1.0919,2.72978 1.0919,5.80078 z"
         style="letter-spacing:5.48393106px;stroke-width:0.36559543"
         id="path12791"
         inkscape:connector-curvature="0" />
    </g>
  </g>
  <style
     id="style3388"
     type="text/css">
	.st0{display:none;}
	.st1{fill:#FFFFFF;}
</style>
  <style
     type="text/css"
     id="style3553">
	.st0{display:none;}
	.st1{fill:#FFFFFF;}
</style>
  <style
     type="text/css"
     id="style7399">
	.st0{display:none;}
	.st1{fill:#FFFFFF;}
</style>
  <style
     id="style3388-1"
     type="text/css">
	.st0{display:none;}
	.st1{fill:#FFFFFF;}
</style>
  <style
     type="text/css"
     id="style3553-1">
	.st0{display:none;}
	.st1{fill:#FFFFFF;}
</style>
  <style
     type="text/css"
     id="style7399-4">
	.st0{display:none;}
	.st1{fill:#FFFFFF;}
</style>
  <style
     id="style3388-0"
     type="text/css">
	.st0{display:none;}
	.st1{fill:#FFFFFF;}
</style>
  <style
     type="text/css"
     id="style3553-5">
	.st0{display:none;}
	.st1{fill:#FFFFFF;}
</style>
  <style
     type="text/css"
     id="style7399-2">
	.st0{display:none;}
	.st1{fill:#FFFFFF;}
</style>
</svg>
